<svg height="512" viewBox="0 0 64 64" width="512" xmlns="http://www.w3.org/2000/svg"><g id="flat"><path d="m45 28v11h-6l7 15v-11h5z" fill="#f9bb4b"/><g fill="#7fcac9"><path d="m34 41a2 2 0 0 1 -4 0c0-1.1 2-4 2-4s2 2.9 2 4z"/><path d="m40 32a2 2 0 0 1 -4 0c0-1.105 2-4 2-4s2 2.9 2 4z"/><path d="m28 32a2 2 0 0 1 -4 0c0-1.105 2-4 2-4s2 2.9 2 4z"/><path d="m22 41a2 2 0 0 1 -4 0c0-1.1 2-4 2-4s2 2.9 2 4z"/><path d="m39 50a2 2 0 0 1 -4 0c0-1.1 2-4 2-4s2 2.9 2 4z"/><path d="m28 50a2 2 0 0 1 -4 0c0-1.1 2-4 2-4s2 2.9 2 4z"/></g><path d="m57 16h-1.05c.032-.329.05-.662.05-1a10 10 0 0 0 -10-10 11.081 11.081 0 0 0 -6 2 10.542 10.542 0 0 0 -8-4 10.08 10.08 0 0 0 -10 7c-1.443-2.094-4.265-3-7-3a7.954 7.954 0 0 0 -7.931 9h-.069a4 4 0 0 0 0 8h50a4 4 0 0 0 0-8z" fill="#195c85"/><path d="m16 32a2 2 0 0 1 -4 0c0-1.105 2-4 2-4s2 2.9 2 4z" fill="#7fcac9"/><path d="m17 50a2 2 0 0 1 -4 0c0-1.1 2-4 2-4s2 2.9 2 4z" fill="#7fcac9"/><path d="m22 59a2 2 0 0 1 -4 0c0-1.1 2-4 2-4s2 2.9 2 4z" fill="#7fcac9"/><path d="m33 59a2 2 0 0 1 -4 0c0-1.1 2-4 2-4s2 2.9 2 4z" fill="#7fcac9"/></g></svg>