<svg viewBox="0 0 64 64" xmlns="http://www.w3.org/2000/svg">
    <g id="flat">
        <path d="m52 12a7.918 7.918 0 0 0 -2 0 11.154 11.154 0 0 0 -18-6.485 10.955 10.955 0 0 0 -7-2.515 10.788 10.788 0 0 0 -10.962 10 9.134 9.134 0 0 0 -2.038 0 9 9 0 0 0 0 18 11.726 11.726 0 0 0 4-1c1.767 2.828 4.42 5 8 5a9.974 9.974 0 0 0 8-4.018 9.974 9.974 0 0 0 8 4.018c3.92 0 7.36-2.716 9-6a9.179 9.179 0 0 0 3 1 9 9 0 0 0 0-18z"
              fill="#195c85"/>
        <g fill="#87cee9">
            <path d="m15 43a4 4 0 0 1 -8 0c0-2.209 4-7 4-7s4 4.791 4 7z"/>
            <path d="m36 47a4 4 0 0 1 -8 0c0-2.209 4-7 4-7s4 4.791 4 7z"/>
            <path d="m57 43a4 4 0 0 1 -8 0c0-2.209 4-7 4-7s4 4.791 4 7z"/>
            <path d="m25 57a4 4 0 0 1 -8 0c0-2.209 4-7 4-7s4 4.791 4 7z"/>
            <path d="m48 57a4 4 0 0 1 -8 0c0-2.209 4-7 4-7s4 4.791 4 7z"/>
        </g>
    </g>
</svg>