<svg height="512" viewBox="0 0 59 59" width="512" xmlns="http://www.w3.org/2000/svg"><g id="Page-1" fill="none" fill-rule="evenodd"><g id="019---Rain" fill-rule="nonzero"><path id="Shape" d="m17.994 27.935c-4.0284486.3656765-7.9321391-1.5111391-10.16229599-4.8858268-2.23015693-3.3746877-2.42623726-7.7016715-.51044679-11.2642357 1.91579046-3.56256429 5.63373138-5.78475949 9.67874278-5.7849375 7.672 0 13.49 7.814 9.924 15.967z" fill="#f0c419"/><g fill="#f3d55b"><path id="Shape" d="m17 4c-.5522847 0-1-.44771525-1-1v-2c0-.55228475.4477153-1 1-1s1 .44771525 1 1v2c0 .55228475-.4477153 1-1 1z"/><path id="Shape" d="m10 5.875c-.35761373.00034843-.68819322-.19029718-.867-.5l-1-1.731c-.18148438-.30957042-.18318331-.69264947-.00445186-1.00381742s.51048847-.50271357.86933356-.50192468c.35884509.00078888.68975672.19379132.8671183.5057421l1 1.731c.1785415.30924248.1786393.6902222.0002566.99955632-.1783827.30933411-.5081742.50007763-.8652566.50044368z"/><path id="Shape" d="m4.875 11c-.17558875.0003718-.34812995-.0458692-.5-.134l-1.732-1c-.31195078-.17736158-.50495322-.50827321-.5057421-.8671183-.00078889-.35884509.19075673-.69060211.50192468-.86933356s.694247-.17703252 1.00381742.00445186l1.732 1c.39194126.22631394.58302085.68765624.46588095 1.1248223-.1171399.4371661-.51329289.7411578-.96588095.7411777z"/><path id="Shape" d="m3 18h-2c-.55228475 0-1-.4477153-1-1s.44771525-1 1-1h2c.55228475 0 1 .4477153 1 1s-.44771525 1-1 1z"/><path id="Shape" d="m3.145 26c-.45258806-.0000199-.84874105-.3040116-.96588095-.7411777s.07393969-.8985084.46588095-1.1248223l1.732-1c.30957042-.1814844.69264947-.1831833 1.00381742-.0044519.31116795.1787315.50271357.5104885.50192468.8693336-.00078888.3588451-.19379132.6897567-.5057421.8671183l-1.732 1c-.15201675.0877772-.32446103.1339923-.5.134z"/><path id="Shape" d="m24 5.875c-.3570824-.00036605-.6868739-.19110957-.8652566-.50044368-.1783827-.30933412-.1782849-.69031384.0002566-.99955632l1-1.731c.1773616-.31195078.5082732-.50495322.8671183-.5057421.3588451-.00078889.6906021.19075673.8693336.50192468.1787314.31116795.1770325.694247-.0044519 1.00381742l-1 1.731c-.1788068.30970282-.5093863.50034843-.867.5z"/></g><path id="Shape" d="m36 52c0 1.6568542-1.3431458 3-3 3s-3-1.3431458-3-3c0-1.1 1.333-3.511 2.221-4.625.1898233-.235832.4762631-.3729761.779-.3729761s.5891767.1371441.779.3729761c.888 1.114 2.221 3.525 2.221 4.625z" fill="#2fa8cc"/><path id="Shape" d="m26 56c0 1.6568542-1.3431458 3-3 3s-3-1.3431458-3-3c0-1.1 1.333-3.511 2.221-4.625.1898233-.235832.4762631-.3729761.779-.3729761s.5891767.1371441.779.3729761c.888 1.114 2.221 3.525 2.221 4.625z" fill="#2fa8cc"/><path id="Shape" d="m16 52c0 1.6568542-1.3431458 3-3 3s-3-1.3431458-3-3c0-1.1 1.333-3.511 2.221-4.625.1898233-.235832.4762631-.3729761.779-.3729761s.5891767.1371441.779.3729761c.888 1.114 2.221 3.525 2.221 4.625z" fill="#2fa8cc"/><path id="Shape" d="m40 56c0 1.6568542 1.3431458 3 3 3s3-1.3431458 3-3c0-1.1-1.333-3.511-2.221-4.625-.1898233-.235832-.4762631-.3729761-.779-.3729761s-.5891767.1371441-.779.3729761c-.888 1.114-2.221 3.525-2.221 4.625z" fill="#2fa8cc"/><path id="Shape" d="m50 52c0 1.6568542 1.3431458 3 3 3s3-1.3431458 3-3c0-1.1-1.333-3.511-2.221-4.625-.1898233-.235832-.4762631-.3729761-.779-.3729761s-.5891767.1371441-.779.3729761c-.888 1.114-2.221 3.525-2.221 4.625z" fill="#2fa8cc"/><path id="Shape" d="m31.862 11c3.9656071.0271231 7.5509287 2.3651045 9.175 5.983.9873951-.3881689 2.039046-.5869649 3.1-.586 4.8155169.0684765 8.6788314 4.0000223 8.663 8.816 3.7260094 1.2526247 6.2265173 4.756159 6.2 8.687.0556004 4.9610465-3.9141162 9.0314038-8.875 9.1h-34.251c-4.7101861-.1273798-8.54844413-3.820805-8.8568146-8.5226118-.30837046-4.7018067 3.0146133-8.8649058 7.6678146-9.6063882 1.0807184-3.0468868 3.9415137-5.1009649 7.174-5.151.7423275-4.9677337 4.9804414-8.6622607 10.003-8.72z" fill="#ecf0f1"/><path id="Shape" d="m17 40h-2c-.5522847 0-1-.4477153-1-1s.4477153-1 1-1h2c.5522847 0 1 .4477153 1 1s-.4477153 1-1 1z" fill="#d1d4d1"/><path id="Shape" d="m51 40h-30c-.5522847 0-1-.4477153-1-1s.4477153-1 1-1h30c.5522847 0 1 .4477153 1 1s-.4477153 1-1 1z" fill="#d1d4d1"/><ellipse id="Oval" cx="13.858" cy="14.555" fill="#f3d55b" rx="7" ry="5.5" transform="matrix(.632 -.775 .775 .632 -6.179 16.108)"/></g></g></svg>