<svg id='chuva_noite' viewBox="0 0 511.99993 511" xmlns="http://www.w3.org/2000/svg">
                <path d="m407.496094 306.78125c-3.769532-1.929688-8.394532-.441406-10.328125 3.332031l-13.910157 27.15625c-1.933593 3.773438-.441406 8.398438 3.332032 10.328125 1.121094.574219 2.3125.847656 3.492187.847656 2.789063 0 5.476563-1.527343 6.835938-4.179687l13.910156-27.15625c1.929687-3.773437.4375-8.398437-3.332031-10.328125zm0 0"
                      fill="#97bffd"/>
                <path d="m471.429688 306.789062c-3.769532-1.941406-8.394532-.460937-10.335938 3.308594l-13.988281 27.15625c-1.9375 3.769532-.457031 8.394532 3.308593 10.335938 1.125.578125 2.324219.855468 3.507813.855468 2.78125 0 5.464844-1.519531 6.828125-4.164062l13.988281-27.160156c1.941407-3.765625.460938-8.394532-3.308593-10.332032zm0 0"
                      fill="#97bffd"/>
                <path d="m238.296875 388.382812c-3.78125-1.914062-8.398437-.402343-10.3125 3.378907l-13.753906 27.15625c-1.914063 3.78125-.402344 8.398437 3.378906 10.316406 1.113281.5625 2.296875.828125 3.460937.828125 2.800782 0 5.5-1.539062 6.851563-4.207031l13.753906-27.160157c1.914063-3.78125.402344-8.398437-3.378906-10.3125zm0 0"
                      fill="#5596fb"/>
                <path d="m301.996094 388.390625c-3.773438-1.921875-8.394532-.421875-10.320313 3.355469l-13.832031 27.15625c-1.921875 3.777344-.417969 8.398437 3.355469 10.320312 1.117187.570313 2.304687.839844 3.476562.839844 2.792969 0 5.488281-1.535156 6.84375-4.195312l13.832031-27.160157c1.921876-3.773437.421876-8.394531-3.355468-10.316406zm0 0"
                      fill="#5596fb"/>
                <path d="m365.695312 388.398438c-3.773437-1.933594-8.394531-.441407-10.328124 3.332031l-13.910157 27.160156c-1.933593 3.769531-.441406 8.394531 3.332031 10.328125 1.121094.574219 2.316407.84375 3.492188.84375 2.789062 0 5.476562-1.527344 6.835938-4.175781l13.910156-27.160157c1.929687-3.773437.441406-8.394531-3.332032-10.328124zm0 0"
                      fill="#97bffd"/>
                <path d="m429.394531 388.40625c-3.765625-1.9375-8.394531-.457031-10.335937 3.308594l-13.988282 27.15625c-1.941406 3.769531-.457031 8.394531 3.308594 10.335937 1.125.578125 2.324219.855469 3.507813.855469 2.78125 0 5.464843-1.519531 6.828125-4.160156l13.988281-27.160156c1.941406-3.769532.457031-8.394532-3.308594-10.335938zm0 0"
                      fill="#97bffd"/>
                <path d="m494.15625 388.40625c-3.765625-1.9375-8.394531-.457031-10.335938 3.308594l-13.988281 27.15625c-1.941406 3.769531-.460937 8.394531 3.308594 10.335937 1.121094.578125 2.324219.855469 3.507813.855469 2.78125 0 5.464843-1.519531 6.828124-4.160156l13.988282-27.160156c1.941406-3.769532.457031-8.394532-3.308594-10.335938zm0 0"
                      fill="#97bffd"/>
                <path d="m196.964844 470c-3.777344-1.914062-8.398438-.402344-10.3125 3.378906l-13.753906 27.160156c-1.914063 3.78125-.402344 8.398438 3.378906 10.3125 1.113281.5625 2.296875.828126 3.460937.828126 2.800781 0 5.5-1.539063 6.851563-4.207032l13.753906-27.160156c1.914062-3.78125.402344-8.398438-3.378906-10.3125zm0 0"
                      fill="#5596fb"/>
                <path d="m173.445312 388.382812c-3.78125-1.914062-8.398437-.402343-10.3125 3.378907l-13.753906 27.15625c-1.914062 3.78125-.402344 8.398437 3.382813 10.316406 1.109375.5625 2.292969.828125 3.457031.828125 2.800781 0 5.5-1.539062 6.851562-4.207031l13.753907-27.160157c1.914062-3.78125.402343-8.398437-3.378907-10.3125zm0 0"
                      fill="#5596fb"/>
                <path d="m132.113281 470c-3.777343-1.914062-8.398437-.402344-10.3125 3.378906l-13.753906 27.160156c-1.914063 3.78125-.398437 8.398438 3.382813 10.3125 1.109374.5625 2.292968.828126 3.457031.828126 2.800781 0 5.5-1.539063 6.851562-4.207032l13.753907-27.160156c1.914062-3.78125.402343-8.398438-3.378907-10.3125zm0 0"
                      fill="#5596fb"/>
                <path d="m260.429688 470.007812c-3.773438-1.921874-8.394532-.421874-10.320313 3.355469l-13.828125 27.160157c-1.925781 3.773437-.421875 8.394531 3.351562 10.320312 1.117188.566406 2.304688.835938 3.476563.835938 2.796875 0 5.492187-1.53125 6.84375-4.195313l13.832031-27.15625c1.921875-3.777344.421875-8.398437-3.355468-10.320313zm0 0"
                      fill="#5596fb"/>
                <g fill="#97bffd">
                    <path d="m323.894531 470.015625c-3.769531-1.929687-8.394531-.441406-10.328125 3.332031l-13.910156 27.160156c-1.933594 3.769532-.441406 8.394532 3.332031 10.328126 1.121094.574218 2.3125.84375 3.492188.84375 2.789062 0 5.476562-1.523438 6.835937-4.175782l13.910156-27.160156c1.929688-3.773438.4375-8.394531-3.332031-10.328125zm0 0"/>
                    <path d="m387.359375 470.023438c-3.769531-1.941407-8.394531-.457032-10.335937 3.308593l-13.988282 27.160157c-1.941406 3.765624-.457031 8.394531 3.308594 10.335937 1.125.578125 2.324219.851563 3.507812.851563 2.78125 0 5.464844-1.519532 6.828126-4.160157l13.988281-27.160156c1.941406-3.769531.457031-8.394531-3.308594-10.335937zm0 0"/>
                    <path d="m66.226562 225.144531c-3.78125-1.914062-8.398437-.402343-10.3125 3.378907l-13.753906 27.160156c-1.914062 3.78125-.402344 8.398437 3.378906 10.3125 1.113282.5625 2.296876.832031 3.460938.832031 2.800781 0 5.5-1.542969 6.851562-4.210937l13.753907-27.15625c1.914062-3.78125.402343-8.398438-3.378907-10.316407zm0 0"/>
                    <path d="m109.363281 265.988281c1.117188.570313 2.304688.835938 3.476563.835938 2.792968 0 5.488281-1.53125 6.84375-4.191407l13.832031-27.160156c1.921875-3.777344.421875-8.398437-3.355469-10.320312s-8.398437-.421875-10.320312 3.355468l-13.832032 27.160157c-1.921874 3.777343-.417968 8.398437 3.355469 10.320312zm0 0"/>
                    <path d="m24.894531 306.765625c-3.78125-1.914063-8.398437-.402344-10.3125 3.378906l-13.753906 27.160157c-1.914063 3.777343-.402344 8.394531 3.382813 10.3125 1.109374.5625 2.292968.828124 3.457031.828124 2.800781 0 5.5-1.539062 6.851562-4.207031l13.753907-27.160156c1.914062-3.78125.402343-8.398437-3.378907-10.3125zm0 0"/>
                    <path d="m88.59375 306.773438c-3.777344-1.921876-8.398438-.421876-10.320312 3.355468l-13.832032 27.160156c-1.921875 3.773438-.421875 8.394532 3.355469 10.320313 1.117187.566406 2.304687.835937 3.476563.835937 2.792968 0 5.488281-1.535156 6.84375-4.195312l13.832031-27.160156c1.921875-3.773438.421875-8.394532-3.355469-10.316406zm0 0"/>
                    <path d="m47.027344 388.390625c-3.773438-1.921875-8.398438-.421875-10.320313 3.355469l-13.832031 27.15625c-1.921875 3.777344-.417969 8.398437 3.355469 10.320312 1.117187.570313 2.304687.839844 3.476562.839844 2.796875 0 5.488281-1.535156 6.84375-4.195312l13.832031-27.160157c1.921876-3.773437.421876-8.394531-3.355468-10.316406zm0 0"/>
                    <path d="m110.492188 388.398438c-3.773438-1.933594-8.394532-.4375-10.328126 3.332031l-13.90625 27.160156c-1.933593 3.769531-.441406 8.394531 3.328126 10.328125 1.121093.574219 2.316406.84375 3.492187.84375 2.789063 0 5.480469-1.527344 6.835937-4.175781l13.910157-27.160157c1.933593-3.773437.441406-8.394531-3.332031-10.328124zm0 0"/>
                </g>
                <path d="m511.960938 154.101562c-.113282 1.097657-.511719 2.203126-1.25 3.234376-24.945313 35.082031-69.398438 53.582031-113.953126 43.371093-57.703124-13.21875-94.722656-70.378906-83.089843-128.421875 6.097656-30.40625 24.097656-55.195312 48.066406-70.675781 1.066406-.675781 2.171875-1.035156 3.265625-1.09375 4.398438-.289063 8.429688 3.917969 7.007812 8.796875-.878906 3.019531-1.636718 6.109375-2.273437 9.257812-11.683594 58.042969 25.34375 115.277344 83.058594 128.503907 17.3125 3.96875 34.601562 3.601562 50.734375-.386719 4.921875-1.207031 8.921875 3.027344 8.433594 7.414062zm0 0"
                      fill="#ffb52d"/>
                <path d="m511.960938 154.101562c-22.949219 12.914063-50.59375 17.652344-78.28125 11.308594-57.703126-13.21875-94.71875-70.382812-83.085938-128.421875 2.679688-13.34375 7.644531-25.609375 14.40625-36.472656 4.398438-.289063 8.429688 3.917969 7.007812 8.796875-.878906 3.019531-1.636718 6.109375-2.273437 9.257812-11.683594 58.042969 25.34375 115.277344 83.058594 128.503907 17.3125 3.96875 34.601562 3.601562 50.734375-.386719 4.921875-1.207031 8.921875 3.027344 8.433594 7.414062zm0 0"
                      fill="#ffb52d"/>
                <path d="m511.40625 271.0625c-.585938 10.269531-9.421875 18.132812-19.703125 18.132812h-209.8125c-15.746094 0-44.101563-17.683593-44.101563-49.101562 0-37.59375 39.625-59.570312 70.78125-44.078125 3.726563 1.859375 8.226563-.082031 9.28125-4.109375 7.527344-28.769531 33.691407-49.996094 64.824219-49.996094 5.714844 0 11.269531.710938 16.570313 2.066406 21.871094 5.566407 39.453125 21.894532 46.761718 43.007813 1.03125 2.972656 4.027344 4.730469 7.148438 4.316406 30.226562-4.003906 54.265625 25.554688 45.097656 54.058594-.941406 2.9375.3125 6.175781 3.019532 7.632813 6.355468 3.40625 10.570312 10.269531 10.132812 18.070312zm0 0"
                      fill="#0956c6"/>
                <path d="m405.777344 171.066406c0 9.582032-2.214844 18.085938-5.84375 25.429688-10.464844 21.289062-32.632813 32.890625-46.542969 32.890625h-45.898437c3.5 4.589843 6.390624 9.671875 8.503906 15.144531 1.453125 3.765625 5.183594 6.199219 9.199218 5.867188 23.054688-1.964844 41.761719 17.152343 41.609376 38.796874h-84.914063c-15.746094 0-44.101563-17.683593-44.101563-49.101562 0-37.59375 39.625-59.570312 70.78125-44.078125 3.726563 1.859375 8.226563-.082031 9.28125-4.109375 7.527344-28.769531 33.691407-49.996094 64.824219-49.996094 5.714844 0 11.269531.710938 16.570313 2.066406 4.132812 7.882813 6.53125 17.015626 6.53125 27.089844zm0 0"
                      fill="#0956c6"/>
                <path d="m368.078125 334.75c.449219 9.453125-7.078125 17.25-16.429687 17.25h-207.867188c-12.960938 0-36.300781-14.550781-36.300781-40.414062 0-23.144532 18.234375-39.09375 38.164062-40.332032 5.851563-.367187 11.847657.53125 17.578125 2.894532 4.429688 1.832031 9.542969-.582032 11.007813-5.15625 7.152343-22.179688 27.949219-38.230469 52.515625-38.230469 23.449218 0 43.472656 14.628906 51.453125 35.253906 1.296875 3.355469 4.625 5.527344 8.203125 5.230469 21.96875-1.875 39.492187 17.71875 36.832031 38.578125-.621094 4.914062 3.152344 9.261719 8.09375 9.261719h19.847656c6.875 0 13.015625 4.101562 15.605469 10.078124.753906 1.726563 1.207031 3.601563 1.296875 5.585938zm0 0"
                      fill="#0956c6"/>
                <path d="m366.78125 329.164062h-186.175781c-12.964844 0-36.300781-14.550781-36.300781-40.414062 0-5.390625.449218-11.378906 1.339843-17.496094 5.851563-.367187 11.847657.53125 17.578125 2.894532 4.429688 1.832031 9.542969-.582032 11.007813-5.15625 7.152343-22.179688 27.949219-38.230469 52.515625-38.230469 23.449218 0 43.472656 14.628906 51.453125 35.253906 1.296875 3.355469 4.625 5.527344 8.203125 5.230469 21.96875-1.875 39.492187 17.71875 36.832031 38.578125-.621094 4.914062 3.152344 9.261719 8.09375 9.261719h19.847656c6.875 0 13.015625 4.101562 15.605469 10.078124zm0 0"
                      fill="#0956c6"/>
                <path d="m339.933594 154.460938c0 8.542968-1.976563 16.121093-5.207032 22.671874-9.332031 18.976563-29.097656 29.320313-41.5 29.320313h-266.898437c-11.476563 0-21.253906-8.914063-21.675781-20.382813-.441406-12.042968 9.195312-21.964843 21.15625-21.964843h35.496094c2.039062 0 3.46875-1.984375 2.839843-3.921875-10.160156-31.214844 17.328125-63.679688 50.828125-56.882813 1.523438.308594 3.03125-.582031 3.476563-2.070312 8.695312-29.34375 35.871093-50.761719 68.039062-50.761719 8.980469 0 17.578125 1.667969 25.484375 4.71875 22.367188 8.609375 39.28125 28.226562 44.089844 52.214844.484375 2.421875 3.214844 3.59375 5.332031 2.324218 33.460938-20.03125 78.539063 3.460938 78.539063 44.734376zm0 0"
                      fill="#5596fb"/>
                <path d="m339.933594 154.460938c0 8.542968-1.976563 16.121093-5.207032 22.671874h-222.316406c-11.472656 0-21.25-8.917968-21.671875-20.382812-.441406-12.046875 9.195313-21.964844 21.152344-21.964844h35.5c2.035156 0 3.46875-1.988281 2.839844-3.921875-10.152344-31.214843 17.328125-63.679687 50.828125-56.875 1.519531.308594 3.03125-.574219 3.46875-2.0625 1.761718-5.941406 4.277344-11.5625 7.445312-16.738281 22.367188 8.609375 39.28125 28.226562 44.089844 52.214844.484375 2.421875 3.214844 3.59375 5.332031 2.324218 33.460938-20.03125 78.539063 3.460938 78.539063 44.734376zm0 0"
                      fill="#5596fb"/>
            </svg>